<svg xmlns="http://www.w3.org/2000/svg" viewBox="0 0 487.622 487.622"><circle cx="243.811" cy="243.811" r="243.811" fill="#EED26A"/><circle cx="243.811" cy="243.811" r="243.811" fill="#C4E15E"/><path d="M487.403 253.76L317.096 119.43l-120.46 49.005L140.75 344.87l168.814 133.77c99.65-27.844 173.522-117.404 177.84-224.88z" fill="#C4E15E"/><path d="M487.403 253.76L317.096 119.43l-120.46 49.005L140.75 344.87l168.814 133.77c99.65-27.844 173.522-117.404 177.84-224.88z" opacity=".37" fill="#B5D24F"/><path d="M243.814 388.172c79.725 0 144.358-64.634 144.358-144.36S323.538 99.45 243.814 99.45c-79.73 0-144.364 64.634-144.364 144.36s64.633 144.362 144.364 144.362zM204.56 180.324l105.15 63.487-105.15 63.487V180.324z" fill="#FFF"/></svg>
