<svg xmlns="http://www.w3.org/2000/svg" viewBox="0 0 497.472 497.472"><path d="M30.467 492.32c-26.197 0-37.746-19.027-25.684-42.28L226.775 22.59c12.06-23.254 31.83-23.254 43.904 0l221.995 427.45c12.09 23.253.526 42.28-25.685 42.28H30.468z" fill="#FFCC4D"/><path d="M217.006 146.153c0-18.518 13.668-29.98 31.744-29.98 17.65 0 31.76 11.89 31.76 29.98v169.785c0 18.076-14.11 29.98-31.76 29.98-18.076 0-31.744-11.478-31.744-29.98V146.153zM214.36 406.32c0-18.96 15.432-34.39 34.39-34.39 18.96 0 34.404 15.432 34.404 34.39 0 18.972-15.445 34.404-34.404 34.404-18.957 0-34.39-15.432-34.39-34.404" fill="#231F20"/></svg>
